<svg width="24" height="24" viewBox="0 0 24 24" fill="none" xmlns="http://www.w3.org/2000/svg">
<path d="M5.73945 3.29897C8.24883 5.17671 10.9473 8.99233 11.9355 11.0419C12.9238 8.99663 15.6223 5.181 18.1316 3.29897C19.9406 1.94116 22.8711 0.892721 22.8711 4.23569C22.8711 4.90171 22.4887 9.84311 22.2652 10.6466C21.4832 13.431 18.6387 14.1443 16.1078 13.7103C20.5293 14.4623 21.6551 16.9544 19.223 19.4466C14.6082 24.1818 12.593 18.2607 12.0773 16.7439C12.0043 16.5333 11.9656 16.4087 11.9355 16.4087C11.9055 16.4087 11.8668 16.5376 11.7937 16.7439C11.2781 18.2607 9.25859 24.1818 4.64805 19.4466C2.22031 16.9544 3.3418 14.4623 7.76328 13.7103C5.23242 14.1443 2.38789 13.431 1.61016 10.6423C1.38242 9.83882 1 4.89741 1 4.23139C1 0.888424 3.93047 1.93686 5.73945 3.29467V3.29897Z" fill="#062630"/>
</svg>
