<svg width="24" height="24" viewBox="0 0 24 24" fill="none" xmlns="http://www.w3.org/2000/svg">
<path d="M19.25 3.75C19.9141 3.75 20.5 4.33594 20.5 5.03906V20C20.5 20.7031 19.9141 21.25 19.25 21.25H4.21094C3.54688 21.25 3 20.7031 3 20V5.03906C3 4.33594 3.54688 3.75 4.21094 3.75H19.25ZM8.27344 18.75V10.4297H5.69531V18.75H8.27344ZM6.98438 9.25781C7.80469 9.25781 8.46875 8.59375 8.46875 7.77344C8.46875 6.95312 7.80469 6.25 6.98438 6.25C6.125 6.25 5.46094 6.95312 5.46094 7.77344C5.46094 8.59375 6.125 9.25781 6.98438 9.25781ZM18 18.75V14.1797C18 11.9531 17.4922 10.1953 14.875 10.1953C13.625 10.1953 12.7656 10.8984 12.4141 11.5625H12.375V10.4297H9.91406V18.75H12.4922V14.6484C12.4922 13.5547 12.6875 12.5 14.0547 12.5C15.3828 12.5 15.3828 13.75 15.3828 14.6875V18.75H18Z" fill="#062630"/>
</svg>
